<svg xmlns="http://www.w3.org/2000/svg" width="321" height="321"><path fill-opacity=".494" d="M0 160.503v160.503l160.75-.253 160.75-.253.253-160.25L322.006 0H0v160.503m.488.497c0 88.275.118 124.388.262 80.25.144-44.137.144-116.362 0-160.5C.606 36.613.488 72.725.488 161" fill="#888" fill-rule="evenodd"/><path fill-opacity=".271" d="M1.207 119.514c-.664 2.483-1.155 5.746-1.091 7.25.072 1.693.29 2.069.573.986.613-2.346 1.956-2.217 2.601.25.726 2.776 4.53 2.608 5.679-.25.693-1.724.919-1.841.968-.5.077 2.127 2.063 2.368 2.063.25 0-1.178 1.38-1.5 6.418-1.5 3.53 0 7.078-.253 7.884-.562 1.285-.494 1.284-.015-.006 3.906-.913 2.772-2.197 4.658-3.384 4.969-1.051.275-1.912 1.217-1.912 2.093 0 1.193-1.007 1.594-4 1.594-2.889 0-4 .417-4 1.5 0 .84-.892 1.5-2.025 1.5-1.45 0-2.195-.852-2.625-3-.82-4.102-2.045-3.766-2.811.77-1.016 6.012-2.267 7.198-3.071 2.911-1.147-6.116-2.472-4.143-2.398 3.569.043 4.427.367 6.492.832 5.304.727-1.858.788-1.847 1.336.25.748 2.857 4.739 3 5.472.196.288-1.1 1.146-2 1.907-2 .76 0 1.383-.9 1.383-2s.645-2 1.433-2 1.718.9 2.067 2c.349 1.1 1.249 2 2 2 .751 0 1.651-.9 2-2 .522-1.644 1.513-2 5.567-2 4.266 0 4.933-.27 4.933-2 0-1.333.667-2 2-2 1.111 0 2-.667 2-1.5 0-2.937 1.921-1.44 2.566 2 .703 3.749 2.434 4.815 2.434 1.5 0-1.1.45-2 1-2s1 .9 1 2c0 1.294.667 2 1.889 2 1.366 0 2.07-.967 2.545-3.5.647-3.45 3.566-5.087 3.566-2 0 1.04 1.046 1.5 3.412 1.5 3.202 0 3.454.247 4.088 4 .57 3.374 1.053 4 3.088 4 1.477 0 2.412.581 2.412 1.5 0 .833.889 1.5 2 1.5s2-.667 2-1.5c0-.825.675-1.5 1.5-1.5s1.5.675 1.5 1.5c0 2.937 1.921 1.44 2.566-2 .533-2.84 1.107-3.5 3.045-3.5 1.722 0 2.389.558 2.389 2 0 1.1.45 2 1 2s1-.9 1-2c0-1.333.667-2 2-2s2-.667 2-2c0-1.556.667-2 3-2s3 .444 3 2 .667 2 3 2 3-.444 3-2c0-1.467.667-2 2.5-2s2.5.533 2.5 2c0 1.1.45 2 1 2s1-.9 1-2 .623-2 1.383-2c.761 0 1.619.9 1.907 2 .385 1.472 1.364 2 3.71 2s3.325-.528 3.71-2c.406-1.553 1.364-2 4.29-2s3.884.447 4.29 2c.378 1.448 1.364 2 3.571 2 2.692 0 3.125.409 3.705 3.5.361 1.925 1.006 3.5 1.434 3.5.428 0 1.073-1.575 1.434-3.5.478-2.549 1.176-3.5 2.566-3.5s2.088.951 2.566 3.5c.647 3.45 2.434 4.919 2.434 2 0-2.415 5.645-1.967 6.29.5.481 1.841 1.364 2 11.071 2h10.548l.657 3.5c.634 3.378 2.434 4.943 2.434 2.117 0-.761 1.097-1.594 2.438-1.85 2.164-.414 2.51-.034 3.087 3.384.813 4.807 1.85 4.901 3.049.275.509-1.966 1.264-3.541 1.676-3.5.412.041 2.305.074 4.205.074 3.156 0 3.511.302 4.111 3.5.746 3.977 2.085 4.59 2.728 1.25l.434-2.25.136 2.25c.122 2.015.658 2.25 5.136 2.25 3.778 0 5 .367 5 1.5 0 2.937 1.921 1.44 2.566-2 .361-1.925 1.006-3.5 1.434-3.5.428 0 1.073 1.575 1.434 3.5.47 2.506 1.183 3.5 2.512 3.5 1.399 0 2.149-1.228 3.054-5 1.148-4.785 1.346-5 4.6-5 2.356 0 3.4.461 3.4 1.5 0 .915.932 1.5 2.389 1.5 1.938 0 2.512.66 3.045 3.5.361 1.925 1.066 3.5 1.566 3.5s1.205-1.575 1.566-3.5c.475-2.533 1.179-3.5 2.545-3.5 1.222 0 1.889.706 1.889 2 0 1.696.667 2 4.383 2 3.543 0 4.484.384 4.907 2 .704 2.694 3.57 2.539 4.629-.25.777-2.045.921-1.908 1.579 1.5.908 4.7 2.082 4.8 2.936.25.742-3.953 3.955-4.946 4.856-1.5.403 1.544 1.364 2 4.21 2s3.807-.456 4.21-2c.391-1.496 1.364-2 3.861-2 3.046 0 3.398.318 4.019 3.629.438 2.334 1.346 3.803 2.546 4.117 1.025.268 1.864 1.11 1.864 1.871 0 .76.45 1.383 1 1.383s1-.675 1-1.5c0-1.04 1.046-1.5 3.412-1.5 3.202 0 3.454-.247 4.088-4 .634-3.753.886-4 4.088-4 2.7 0 3.412.401 3.412 1.923 0 1.779.794 1.92 10.575 1.884 9.746-.036 10.635-.201 11.337-2.099.757-2.045.767-2.044 1.332.116.964 3.686 3.756 2.702 3.756-1.324V161h-6.094c-5.252 0-6.165.276-6.616 2-.388 1.482-1.364 2-3.768 2-2.922 0-3.197-.249-2.767-2.5.57-2.978 2.245-3.352 2.245-.5 0 3.269 1.726 2.272 2.414-1.394.567-3.024 1.042-3.441 4.361-3.834 4.722-.559 7.225.08 7.225 1.845 0 .76.633 1.383 1.407 1.383 1.057 0 1.579-2.298 2.101-9.26.381-5.094.485-10.381.229-11.75-.303-1.626-.512-1.016-.601 1.76-.135 4.223-.16 4.25-3.9 4.25-3.437 0-3.915-.348-5.5-4.007-.955-2.204-1.736-4.679-1.736-5.5 0-2.913-1.788-1.439-2.434 2.007l-.657 3.5h-8.548c-7.707 0-8.6.197-9.071 2-.418 1.599-1.364 2-4.72 2-3.868 0-4.304-.274-5.57-3.5-1.116-2.845-1.9-3.5-4.187-3.5-1.834 0-2.813.522-2.813 1.5 0 .833-.889 1.5-2 1.5s-2-.667-2-1.5c0-.825-.45-1.5-1-1.5s-1-.9-1-2c0-1.538-.667-2-2.883-2-2.043 0-3.036-.583-3.407-2-.418-1.598-1.364-2-4.71-2s-4.292.402-4.71 2c-.288 1.1-.921 2-1.407 2-.485 0-.937 1.012-1.003 2.25-.071 1.323-.541.498-1.142-2-1.28-5.324-2.367-5.408-3.238-.25l-.676 4h-6.412c-5.745 0-6.412-.208-6.412-2 0-1.1-.4-2-.889-2-.488 0-1.184-1.575-1.545-3.5-.703-3.746-2.128-4.613-2.877-1.75-.435 1.667-.463 1.667-.573 0-.203-3.058-2-1.885-2.682 1.75-.832 4.433-2.028 4.479-2.847.11-.735-3.918-2.27-4.576-10.72-4.596-4.786-.012-5.712-.315-6.157-2.014-.415-1.589-1.364-2-4.616-2-2.972 0-4.094-.411-4.094-1.5 0-1.111-1.167-1.5-4.5-1.5s-4.5.389-4.5 1.5c0 .825-.662 1.5-1.471 1.5s-2.319 1.849-3.355 4.109c-1.619 3.532-1.961 3.813-2.435 2-.375-1.432-1.35-2.109-3.038-2.109-1.368 0-2.743-.666-3.055-1.48-.425-1.109-2.146-1.45-6.857-1.361-9.499.18-10.789-.018-10.789-1.659 0-2.686-1.734-1.579-2.35 1.5-.41 2.051-1.192 3-2.472 3-1.03 0-2.325 1.013-2.877 2.25l-1.006 2.25-.715-2.25c-.393-1.237-1.311-2.25-2.04-2.25-.729 0-1.585-.675-1.902-1.5-.316-.825-1.264-1.5-2.107-1.5a1.536 1.536 0 01-1.531-1.531c0-.843-.631-1.774-1.401-2.07-.771-.295-1.629-1.406-1.907-2.468-.71-2.714-5.689-2.66-6.402.069-.606 2.318-3.29 2.726-3.29.5 0-2.919-1.787-1.45-2.434 2-.728 3.879-2.052 4.575-2.856 1.5-.429-1.641-1.364-2-5.21-2s-4.781.359-5.21 2c-.335 1.281-1.364 2-2.861 2-1.881 0-2.467-.685-2.995-3.5-.647-3.45-2.434-4.919-2.434-2 0 1.116-1.177 1.5-4.594 1.5-3.752 0-4.689.366-5.116 2-.605 2.314-4.29 2.743-4.29.5 0-.825-.45-1.5-1-1.5s-1 .675-1 1.5c0 1.233-1.769 1.5-9.918 1.5-5.455 0-10.63.273-11.5.607-1.134.435-1.582.01-1.582-1.5 0-3.581-1.788-2.322-2.475 1.742-.577 3.418-.923 3.798-3.087 3.384-1.771-.339-2.438-.024-2.438 1.15 0 2.289-1.664 2.011-2.29-.383-.369-1.411-1.364-2-3.38-2-2.38 0-3.149-.671-4.594-4.007-.955-2.204-1.736-4.679-1.736-5.5 0-2.87-1.783-1.464-2.415 1.905-.476 2.535-1.277 3.559-3.157 4.031-2.919.732-4.428.055-4.428-1.988 0-.934-1.055-1.441-3-1.441-2 0-3 .5-3 1.5 0 .926-.939 1.5-2.455 1.5-2.013 0-2.572-.629-3.111-3.5-.703-3.749-2.434-4.815-2.434-1.5 0 1.704-.667 2-4.5 2s-4.5.296-4.5 2c0 3.561-1.804 2.117-2.5-2-.372-2.2-.993-4-1.38-4-.388 0-1.249 2.031-1.913 4.514m127.856-.17c-.034 1.014-.937 2.072-2.006 2.351-1.13.296-2.209 1.721-2.579 3.407-.592 2.695-2.478 4.14-2.478 1.898 0-.55-1.365-1-3.032-1-2.201 0-3.253-.597-3.837-2.176l-.806-2.177-.588 2.252c-.435 1.663-1.197 2.167-2.913 1.926-1.876-.262-2.508.301-3.281 2.925-1.192 4.051-2.117 4.131-2.893.25-.532-2.659-1.005-3-4.157-3-2.776 0-3.74-.494-4.39-2.25-.783-2.114-.876-2.054-1.548 1-.707 3.219-2.555 4.552-2.555 1.844 0-2.061-3.803-.791-4.534 1.514-.331 1.041-1.203 1.892-1.94 1.892-.846 0-1.146.735-.816 2 .29 1.107 1.364 2 2.407 2 1.216 0 1.883.708 1.883 2 0 1.467.667 2 2.5 2s2.5-.533 2.5-2c0-1.841.667-2 8.383-2 7.543 0 8.436-.201 8.907-2 .287-1.1 1.282-2 2.21-2 .928 0 1.923.9 2.21 2 .467 1.787 1.364 2 8.407 2 7.216 0 7.883.169 7.883 2 0 1.111.667 2 1.5 2 .825 0 1.5.675 1.5 1.5s.45 1.5 1 1.5 1-.675 1-1.5.4-1.5.889-1.5c.488 0 1.186-1.585 1.549-3.522.476-2.537.227-3.955-.889-5.071-.852-.853-1.549-1.968-1.549-2.478 0-.511-.717-.929-1.594-.929-.876 0-1.829-.9-2.116-2-.288-1.1-.935-2-1.439-2-.503 0-1.322-1.013-1.82-2.25-.748-1.861-.915-1.931-.968-.406m-94.71 8.406c.269.963.779 2.762 1.135 4 .809 2.815 5.52 3.244 5.498.5-.035-4.506-1.199-6.25-4.17-6.25-2.33 0-2.848.368-2.463 1.75M63.5 128c-.349 1.1-1.504 2-2.567 2-1.063 0-1.933.188-1.933.418 0 .23-.273 1.13-.607 2-.509 1.327.298 1.582 5 1.582 3.084 0 5.607-.45 5.607-1s-.394-1-.875-1-1.145-1.35-1.475-3c-.688-3.441-2.221-3.928-3.15-1m9.108-.421c-.737 1.922.282 6.421 1.455 6.421.466 0 1.142-1.575 1.503-3.5.647-3.45 2.434-4.919 2.434-2 0 .825.723 1.5 1.607 1.5 1.055 0 1.398-.544 1-1.582-.334-.87-.607-1.77-.607-2 0-.23-1.527-.418-3.393-.418-2.169 0-3.612.57-3.999 1.579m94.031-.081c-.893 2.327-.832 2.502.861 2.502 1.683 0 1.873-.863.624-2.834-.675-1.064-.975-.997-1.485.332m15.671 1.083c-1.331 2.867-.867 4.991 1.267 5.81.783.301 1.423 1.235 1.423 2.078 0 .842.642 1.531 1.426 1.531.785 0 2.621 2.441 4.08 5.424 1.46 2.983 3.286 5.666 4.059 5.962 1.481.569 3.435-2.174 3.435-4.82 0-.861.45-1.566 1-1.566s1 .675 1 1.5c0 1.208 1.556 1.5 8 1.5s8-.292 8-1.5c0-.825.45-1.5 1-1.5s1.007.787 1.015 1.75c.023 2.61 1.176 3.866 4.235 4.615 2.088.511 2.75.308 2.75-.846 0-.835.45-1.519 1-1.519s1 .45 1 1c0 1.587 3.725 1.16 4.362-.5.787-2.052 4.313-1.893 5.543.25.861 1.499 1.101 1.283 1.675-1.5.732-3.552 2.011-4.254 2.731-1.5.435 1.667.463 1.667.573 0 .068-1.021.919-1.75 2.043-1.75 1.059 0 2.132.787 2.384 1.75.435 1.667.463 1.667.573 0 .162-2.448 2.116-2.2 2.116.269 0 1.652.452 1.906 2.491 1.394 1.773-.445 2.668-.162 3.107.981.423 1.103 1.864 1.606 4.603 1.606 3.145 0 4.097.422 4.509 2 .301 1.149 1.364 2 2.5 2s2.2.851 2.5 2c.288 1.1 1.146 2 1.907 2 .76 0 1.383.9 1.383 2 0 1.344.667 2 2.031 2 1.118 0 2.291.675 2.607 1.5.974 2.537 2.239 1.672 2.928-2 .746-3.977 2.085-4.59 2.728-1.25l.434 2.25.136-2.25c.075-1.238.586-2.25 1.136-2.25.55 0 1.054 1.012 1.12 2.25.071 1.323.541.498 1.142-2 1.048-4.356 2.738-5.782 2.738-2.309 0 3.686 2.498 3.445 4.563-.441.766-1.442.718-3.115-.173-6-.831-2.689-1.261-3.262-1.313-1.75-.073 2.127-.489 2.25-7.577 2.25-6.833 0-7.5-.178-7.5-2 0-1.778-.667-2-6-2s-6-.222-6-2c0-1.1-.45-2-1-2s-1-.675-1-1.5c0-.948-.955-1.5-2.594-1.5-1.752 0-2.763-.649-3.116-2-.84-3.212-3.767-2.382-5.29 1.5l-1.373 3.5h-6.814c-6.146 0-6.813.196-6.813 2 0 1.556-.667 2-3 2s-3-.444-3-2c0-1.333-.667-2-2-2-1.111 0-2-.667-2-1.5 0-1.133-1.222-1.5-5-1.5s-5 .367-5 1.5c0 3.513-1.777 1.072-2.913-4-1.428-6.381-3.652-7.337-4.653-2-.361 1.925-1.006 3.5-1.434 3.5-.428 0-1.073-1.575-1.434-3.5-.6-3.198-.955-3.5-4.111-3.5-2.404 0-3.455.456-3.455 1.5 0 2.937-1.921 1.44-2.566-2-.57-3.041-1.036-3.5-3.545-3.5-2.222 0-2.889.462-2.889 2 0 1.1-.45 2-1 2s-1-.9-1-2c0-3.053-4.203-2.624-5.69.581m-22.31.491c0 .589-1.238.926-2.75.75-2.21-.259-2.813.12-3.07 1.928-.28 1.973.121 2.25 3.25 2.25 2.415 0 3.57-.459 3.57-1.418 0-.78.273-2.13.607-3 .334-.87.109-1.582-.5-1.582s-1.107.482-1.107 1.072M43 132c0 1.333.667 2 2 2s2-.667 2-2-.667-2-2-2-2 .667-2 2m104.607-.418c-.858 2.235-.79 2.418.893 2.418.833 0 1.5-.889 1.5-2 0-2.384-1.536-2.653-2.393-.418M31.5 133c-.34.55-.141 1 .441 1S33 133.55 33 133s-.198-1-.441-1-.719.45-1.059 1m-3.43 1.344c-.038 1.014-.928 2.068-1.978 2.342-2.294.6-3.584 4.314-1.498 4.314.773 0 1.406-.675 1.406-1.5 0-.833.889-1.5 2-1.5 2.172 0 2.305-.464 1-3.5-.785-1.827-.866-1.841-.93-.156M79.71 136c-.381 1.457-.03 2 1.29 2s1.671-.543 1.29-2c-.288-1.1-.868-2-1.29-2-.422 0-1.002.9-1.29 2m89.966.132c-.41 1.567-1.104 1.989-2.617 1.594-1.547-.405-2.059-.065-2.059 1.368 0 1.048-.45 1.906-1 1.906s-1-.675-1-1.5c0-1.216-1.611-1.5-8.5-1.5-6.667 0-8.5.306-8.5 1.417 0 .779-.405 1.566-.899 1.75-.495.183-.164 2.021.735 4.083l1.635 3.75h13.438l.657-3.5c.361-1.925 1.006-3.5 1.434-3.5.428 0 1.073 1.575 1.434 3.5.647 3.45 3.566 5.087 3.566 2 0-.825.45-1.5 1-1.5s1 .909 1 2.019c0 1.653.452 1.906 2.493 1.393 1.989-.499 2.663-.164 3.337 1.658l.845 2.283.569-2.177c.713-2.729 3.767-2.85 4.466-.176.701 2.678 6.947 2.885 7.531.25.507-2.291-3.372-10.187-5.022-10.223-.705-.015-1.572-.814-1.927-1.777-.913-2.472-2.424-3.255-5.024-2.602-1.52.381-2.449.043-2.866-1.042-.892-2.326-4.073-1.972-4.726.526M.336 145c0 4.125.177 5.813.392 3.75.216-2.062.216-5.437 0-7.5-.215-2.062-.392-.375-.392 3.75M60 139.5c0 .825.45 1.5 1 1.5s1-.675 1-1.5-.45-1.5-1-1.5-1 .675-1 1.5m6.158.5c0 1.375.227 1.938.504 1.25.278-.687.278-1.812 0-2.5-.277-.687-.504-.125-.504 1.25M107 140c0 1.1.45 2 1 2s1-.9 1-2-.45-2-1-2-1 .9-1 2m20 0c0 1.431.64 1.978 2.25 1.921 1.238-.043 1.688-.306 1-.583-.687-.278-1.25-1.142-1.25-1.921 0-.78-.45-1.417-1-1.417s-1 .9-1 2m169.622 8.25c-.331 1.787-.194 4.6.302 6.25.748 2.481.919 2.611.99.75.106-2.781 2.086-3.018 2.086-.25 0 1.1.419 2 .93 2 1.404 0 1.708-4.035.622-8.25-1.247-4.843-4.074-5.13-4.93-.5M305 149c0 3.742.186 4 2.883 4 2.043 0 3.036-.583 3.407-2 .287-1.1.115-2-.384-2-.498 0-.906-.9-.906-2 0-1.467-.667-2-2.5-2-2.25 0-2.5.4-2.5 4m-96.325 1.405c-1.029 2.682-.82 3.595.825 3.595 1.643 0 1.738-.535.605-3.427-.701-1.788-.804-1.8-1.43-.168M316.71 151c.288 1.1.921 2 1.407 2 .485 0 .883-.9.883-2s-.633-2-1.406-2c-.914 0-1.224.7-.884 2M204 152.941c0 1.132-.45 2.059-1 2.059s-1 .45-1 1 1.35 1 3 1 3-.45 3-1-.45-1-1-1-1-.648-1-1.441-.45-1.719-1-2.059c-.55-.34-1 .309-1 1.441m29-1.141c0 .66-.9 1.2-2 1.2s-2 .188-2 .418c0 .23-.273 1.13-.607 2-.493 1.284.166 1.582 3.5 1.582 3.44 0 4.107.325 4.107 2 0 1.111.667 2 1.5 2s1.5-.889 1.5-2c0-1.467.667-2 2.5-2s2.5.533 2.5 2c0 1.822.667 2 7.5 2 6 0 7.5.3 7.5 1.5 0 .825.675 1.5 1.5 1.5s1.5-.675 1.5-1.5c0-.865.952-1.533 2.25-1.579 1.238-.043 1.691-.305 1.009-.58-.683-.276-1.972-2.041-2.864-3.921-1.446-3.047-2.075-3.431-5.759-3.521-7.376-.181-11.119.272-11.962 1.449-.614.856-.956.831-1.333-.098-.279-.687-2.18-1.25-4.224-1.25s-4.257-.54-4.917-1.2c-.933-.933-1.2-.933-1.2 0m-41.29 3.2c.288 1.1.889 2 1.337 2 .448 0 1.009 1.012 1.247 2.25l.434 2.25.136-2.25c.103-1.697.75-2.25 2.636-2.25 2.638 0 3.009-.649 1.624-2.834-.681-1.074-.964-1.025-1.453.25-.771 2.007-3.551 2.061-4.309.084-.859-2.237-2.257-1.813-1.652.5m32.103 1.683c.721.289 1.584.253 1.916-.079.332-.332-.258-.568-1.312-.525-1.165.048-1.402.285-.604.604M274 159c0 .55.45 1 1 1s1-.45 1-1-.45-1-1-1-1 .45-1 1m-6.187 1.683c.721.289 1.584.253 1.916-.079.332-.332-.258-.568-1.312-.525-1.165.048-1.402.285-.604.604m23.456.01c.973.254 2.323.237 3-.037.677-.274-.119-.481-1.769-.461-1.65.02-2.204.244-1.231.498" fill="#888" fill-rule="evenodd"/><path fill-opacity=".415" d="M1.243 120.984c-1.609 5.158-1.567 6.077.249 5.381.851-.327 1.755.116 2.107 1.031.889 2.319 4.15 1.97 4.943-.528.542-1.708.869-1.857 1.643-.75.553.79 1.148.954 1.389.382.242-.575 3.245-.855 7.058-.659 4.753.245 6.888-.039 7.521-1 .711-1.079 1.086-.998 1.917.412.864 1.467 1.918 1.648 6.461 1.114 4.486-.527 5.537-.354 6.055.998.381.992 1.766 1.635 3.521 1.635 1.591 0 2.893.45 2.893 1s.723 1 1.607 1c1.055 0 1.398-.544 1-1.582-.334-.87-.607-1.77-.607-2 0-.23-1.267-.418-2.815-.418-2.237 0-3.16-.725-4.5-3.534-.927-1.944-1.685-4.194-1.685-5 0-2.66-1.738-1.525-2.35 1.534-.528 2.639-1.016 3-4.058 3-2.579 0-3.618-.508-4.092-2-.349-1.1-1.474-2-2.5-2s-2.151.9-2.5 2c-.408 1.285-1.513 2-3.092 2-1.931 0-2.587-.643-3.058-3-.673-3.367-2.35-4.081-2.35-1 0 1.1-.45 2-1 2s-1-.45-1-1-1.361-1-3.025-1c-2.561 0-3.117.46-3.625 3-.834 4.17-2.048 3.744-2.85-1-.372-2.2-.977-4-1.344-4-.368 0-1.229 1.793-1.913 3.984M184.29 121c-.288 1.1-1.135 2-1.883 2-.747 0-2.212 1.662-3.254 3.694-1.759 3.428-1.945 3.536-2.592 1.5-.855-2.696-3.568-2.883-4.245-.293-.796 3.043-8.316 3.519-8.316.526 0-.785-.45-1.427-1-1.427s-1 .863-1 1.918c0 3.788-1.146 5.082-4.5 5.082s-4.5-1.294-4.5-5.082c0-1.055-.45-1.918-1-1.918s-1.007 1.012-1.015 2.25c-.023 3.344-1.088 4.378-5.175 5.023-3.232.509-3.737.311-4.071-1.596-.347-1.978-.494-1.903-1.61.823-2.79 6.82-3.655 8.5-4.373 8.5-.416 0-.756-.653-.756-1.45 0-.798-.596-1.81-1.325-2.25-.729-.44-1.615-1.587-1.969-2.55-.534-1.452-1.908-1.75-8.068-1.75-5.677 0-7.559-.353-8-1.5-.316-.825-1.278-1.5-2.138-1.5-.86 0-1.822.675-2.138 1.5-.446 1.16-2.386 1.5-8.563 1.5-7.145 0-8.041.211-8.509 2-.634 2.424-5.29 2.842-5.29.475 0-.838-1.125-1.952-2.5-2.475-1.375-.523-2.5-1.412-2.5-1.975 0-.564-1.35-1.025-3-1.025s-3-.45-3-1-.45-1-1-1-1 .873-1 1.941c0 2.553-1.721 3.535-3.544 2.023-1.037-.861-1.824-.903-2.736-.147-1.68 1.394-25.923 1.151-27.046-.271-.56-.709-.99-.643-1.333.204-.311.766-2.447 1.25-5.518 1.25-4.088 0-5.102.351-5.509 1.908-.274 1.049-1.357 2.132-2.406 2.406-1.05.274-1.908 1.216-1.908 2.092 0 2.261-3.671 2.001-5.732-.406-.942-1.1-2.78-2-4.084-2-1.53 0-2.557.709-2.894 2-.339 1.294-1.364 2-2.907 2-1.619 0-2.383.571-2.383 1.782 0 1.171-.843 1.852-2.457 1.985-2.073.172-2.56-.343-3.112-3.282-1.05-5.599-2.432-4.018-2.416 2.765.01 3.965.336 5.745.891 4.868.688-1.086 1.02-.925 1.552.75.855 2.693 4.201 2.781 5.042.132.349-1.1 1.024-2 1.5-2s1.151-.9 1.5-2c.351-1.106 1.513-2 2.6-2 1.104 0 2.317-.953 2.769-2.176l.806-2.177.569 2.177C17.736 144.706 18.514 145 23 145c4.262 0 5.276-.34 5.686-1.908.274-1.049 1.357-2.132 2.406-2.406 1.05-.274 1.908-1.216 1.908-2.092 0-3.011 1.91-1.592 2.566 1.906.647 3.45 2.434 4.919 2.434 2 0-.825.45-1.5 1-1.5s1 .675 1 1.5.85 1.5 1.889 1.5c1.366 0 2.07-.967 2.545-3.5.715-3.81 3.017-4.706 3.856-1.5.373 1.427 1.364 2 3.458 2 2.57 0 3.088.51 4.163 4.098.99 3.303 1.603 4.001 3.159 3.594 1.231-.322 1.93.004 1.93.902 0 .773.9 1.406 2 1.406s2-.45 2-1 .675-1 1.5-1 1.5.45 1.5 1 .45 1 1 1 1.007-.787 1.015-1.75c.022-2.475 1.136-3.871 3.735-4.683 1.675-.522 2.25-.301 2.25.866 0 .862.45 1.567 1 1.567s1-.45 1-1 .717-1 1.594-1c.876 0 1.829-.9 2.116-2 .364-1.392 1.364-2 3.29-2s2.926.608 3.29 2c.322 1.231 1.364 2 2.71 2 1.346 0 2.388-.769 2.71-2 .629-2.405 5.29-2.845 5.29-.5 0 .825.45 1.5 1 1.5s1-.675 1-1.5c0-2.217 2.763-1.822 3.5.5.93 2.929 5.852 2.717 7.232-.312.878-1.927 1.648-2.242 4.627-1.894 2.347.274 3.773 1.047 4.156 2.252.372 1.173 1.737 1.946 3.783 2.144 2.442.237 3.278.844 3.522 2.56.175 1.238.707 2.25 1.18 2.25s1.005-1.012 1.18-2.25c.235-1.648.989-2.25 2.82-2.25s2.585.602 2.82 2.25c.294 2.074 2.18 3.305 2.18 1.423 0-1.363 6.116-.034 6.686 1.452.401 1.045 3.03 1.375 10.946 1.375h10.418l.6 3c.553 2.766 2.35 4.296 2.35 2 0-1.945 4.845-1.064 5.5 1 .349 1.1 1.024 2 1.5 2s1.151-.9 1.5-2c.507-1.598 1.513-2 5-2s4.493.402 5 2c.44 1.385 1.513 2 3.493 2h2.858l-1.645-3.852c-1.602-3.752-1.756-3.84-5.908-3.372-3.315.373-4.401.118-4.887-1.148-.824-2.148-3.022-2.079-3.875.122-.647 1.667-.74 1.667-1.968 0-1.4-1.902-3.568-2.357-3.568-.75 0 .55-.45 1-1 1s-1-.9-1-2-.45-2-1-2-1 .45-1 1c0 2.447-3.1.749-3.65-2-.33-1.65-.938-3-1.35-3-.412 0-1.02 1.35-1.35 3-.596 2.982-.64 3-7.44 3h-6.84l-1.72-3.609c-1.465-3.071-1.531-4.039-.442-6.5 1.263-2.851 1.394-2.891 9.536-2.891 6.672 0 8.256.288 8.256 1.5 0 .825.45 1.5 1 1.5s1-.675 1-1.5c0-.841.892-1.5 2.031-1.5 1.118 0 2.291-.675 2.607-1.5.404-1.051 2.043-1.5 5.477-1.5 4.785 0 4.939-.095 6.502-4 .88-2.2 1.964-4 2.41-4 .445 0 1.521-.273 2.391-.607 1.038-.398 1.582-.055 1.582 1 0 .884.45 1.607 1 1.607s1-.597 1-1.327c0-.91.957-1.186 3.049-.879 2.407.353 3.171 1.054 3.625 3.327.573 2.865 2.326 4.056 2.326 1.58 0-.9 1.092-1.172 3.548-.885 2.974.347 3.641.881 4.125 3.299.746 3.731 1.918 3.68 2.677-.115.842-4.212 3.332-3.806 4.597.75.573 2.063 1.044 4.313 1.047 5 .003.688.456 1.25 1.006 1.25s1-.675 1-1.5c0-1.133 1.222-1.5 5-1.5 3.908 0 5 .348 5 1.594 0 .876.858 1.818 1.908 2.092 1.049.274 2.132 1.357 2.406 2.406.679 2.598 4.711 2.529 5.396-.092.454-1.735 1.364-2 6.86-2 6.258 0 6.357-.043 7.997-3.5 1.731-3.648 4.761-4.694 5.795-2 .316.825 1.608 1.5 2.871 1.5 1.734 0 2.732 1.008 4.081 4.122l1.786 4.123 5.035-.484c4.552-.437 5.137-.257 6.11 1.878.962 2.111 1.731 2.361 7.263 2.361 5.432 0 6.317-.274 7.257-2.25 1.036-2.178 1.093-2.146 1.777 1 .885 4.062 2.025 4.164 2.808.25.939-4.696 4.283-4.077 5.663 1.049 1.113 4.134.595 7.951-1.08 7.951-.513 0-.933-.45-.933-1 0-1.696-1.826-1.103-2.311.75-.435 1.667-.463 1.667-.573 0-.069-1.045-.922-1.75-2.116-1.75-2.285 0-2.404.377-.965 3.066.827 1.545 2.12 1.934 6.433 1.934 4.519 0 5.501-.325 6.032-2 .439-1.384 1.513-2 3.484-2 1.567 0 3.112-.562 3.433-1.25.466-1 .7-1 1.166 0 .321.688 1.191 1.25 1.933 1.25s1.635.9 1.984 2 1.011 2 1.471 2c.984 0 2.566-20.797 1.651-21.711-.342-.342-.622 1.253-.622 3.544 0 4.151-.014 4.167-3.764 4.167-3.437 0-3.915-.348-5.5-4.007-.955-2.204-1.736-4.679-1.736-5.5 0-2.913-1.788-1.439-2.434 2.007l-.657 3.5h-8.548c-7.707 0-8.6.197-9.071 2-.417 1.594-1.364 2-4.671 2-3.883 0-4.258-.255-5.88-4-1.934-4.465-5.514-5.575-6.449-2-.871 3.331-3.68 2.318-5.551-2-1.342-3.097-2.283-4-4.169-4-1.557 0-2.664-.721-3.07-2-.486-1.531-1.513-2-4.378-2-3.378 0-3.946.401-5.829 4.108l-2.086 4.109-.683-3.109c-.857-3.901-2.171-3.99-3.003-.204-.576 2.621-1.095 2.943-5.329 3.308-2.581.222-5.367.235-6.192.028-1.605-.402-5-6.364-5-8.781 0-2.046-1.758-1.825-2.311.291-.435 1.667-.463 1.667-.573 0-.188-2.83-1.815-2.005-2.466 1.25-.33 1.65-1.072 3-1.65 3-.578 0-1.32-1.35-1.65-3-.33-1.65-1.219-3-1.975-3s-1.375-.45-1.375-1c0-.562-2.798-1-6.393-1-4.76 0-6.54-.383-6.969-1.5-.376-.98-1.933-1.5-4.49-1.5-3.074 0-4.027-.43-4.438-2-.403-1.544-1.364-2-4.21-2s-3.807.456-4.21 2M52 130c0 .55.9 1 2 1s2-.45 2-1-.9-1-2-1-2 .45-2 1m27.607 4.582c-1.051 2.739-.679 3.418 1.872 3.418 2.28 0 2.387-.199 1.339-2.5-1.311-2.878-2.345-3.174-3.211-.918m-20 4c-.96 2.502-.721 3.418.893 3.418.825 0 1.5-.675 1.5-1.5 0-2.1 3.753-1.882 4.311.25.435 1.667.463 1.667.573 0 .064-.963.791-1.75 1.616-1.75.825 0 1.5-.45 1.5-1s-2.202-1-4.893-1c-3.539 0-5.061.438-5.5 1.582m13.662-.889c.973.254 2.323.237 3-.037.677-.274-.119-.481-1.769-.461-1.65.02-2.204.244-1.231.498m30.934-.013c.937.247 1.979 1.32 2.317 2.384.832 2.622 1.932 2.434 3.298-.564 1.121-2.459 1.071-2.498-3.089-2.384-2.326.064-3.463.318-2.526.564m14.547.043c1.787.222 3.25.825 3.25 1.34 0 .516.45.937 1 .937s1-.675 1-1.5c0-1.123-1.068-1.46-4.25-1.34-3.684.139-3.817.214-1 .563m7.25.195c0 2.551 1.455 4.079 3.857 4.052 2.278-.027 2.401-.172.893-1.05-.963-.561-1.75-1.672-1.75-2.47 0-.797-.675-1.45-1.5-1.45s-1.5.413-1.5.918M.32 145c0 3.575.182 5.037.403 3.25.222-1.787.222-4.713 0-6.5-.221-1.787-.403-.325-.403 3.25M140 142.5c0 .825.45 1.5 1 1.5s1-.675 1-1.5-.45-1.5-1-1.5-1 .675-1 1.5m164.411 4.998c-.345 1.374-.367 3.174-.05 4 .763 1.989 6.514 1.991 7.277.002.317-.825 1.38-1.5 2.362-1.5.982 0 2.045.675 2.362 1.5.316.825 1.312 1.5 2.214 1.5 1.083 0 1.432-.536 1.031-1.582-.334-.87-.607-1.77-.607-2 0-.23-1.77-.418-3.933-.418-3.054 0-4.074-.447-4.567-2-.961-3.029-5.292-2.675-6.089.498M211 154c0 .55-.675 1-1.5 1s-1.5.45-1.5 1c0 1.48-5.994 1.232-6.032-.25-.021-.852-.419-.761-1.25.286-.67.845-1.949 1.386-2.842 1.201-.893-.184-1.892.362-2.219 1.214-.507 1.323.632 1.549 7.807 1.549 7.523 0 8.468-.209 9.036-2 .469-1.478 1.513-2 4-2s3.531.522 4 2c.559 1.763 1.513 2 8.036 2 6.191 0 7.306-.247 6.821-1.511-.436-1.136-1.943-1.453-6.081-1.28-4.638.194-5.785-.119-7.299-1.99-1.986-2.451-4.492-2.902-5.394-.969-.466 1-.7 1-1.166 0-.692-1.483-4.417-1.693-4.417-.25m75.755 3.5c-.36 1.884-.053 2.5 1.245 2.5s1.605-.616 1.245-2.5c-.263-1.375-.823-2.5-1.245-2.5-.422 0-.982 1.125-1.245 2.5m-47.117 1c-.414 1.08.106 1.5 1.862 1.5s2.276-.42 1.862-1.5c-.317-.825-1.155-1.5-1.862-1.5-.707 0-1.545.675-1.862 1.5m29.591-.312c.218.653.931 1.365 1.584 1.583.731.244.954-.214.581-1.187-.698-1.818-2.765-2.196-2.165-.396m-77.595 4.301c.393 1.023 1.851 1.438 4.662 1.328 2.368-.093 4.254.333 4.48 1.012.665 1.994 1.967 1.293 2.469-1.329.469-2.454.36-2.5-5.852-2.5-5.195 0-6.228.267-5.759 1.489m15.121 1.011c.295 1.543 1.154 2.5 2.245 2.5 1.091 0 1.95-.957 2.245-2.5.415-2.172.12-2.5-2.245-2.5s-2.66.328-2.245 2.5m19 0c.263 1.375.823 2.5 1.245 2.5.422 0 .982-1.125 1.245-2.5.36-1.884.053-2.5-1.245-2.5s-1.605.616-1.245 2.5m7.935-.865c.43 1.12 1.646 1.448 4.401 1.185 3.274-.312 3.887-.045 4.377 1.908.73 2.909 2.927 2.92 4.266.022 1.036-2.243 1.042-2.242 1.761.5.899 3.424 2.093 3.527 2.916.25.766-3.053 4.173-3.388 5.089-.5.469 1.478 1.513 2 4 2s3.531-.522 4-2c.349-1.1 1.317-2 2.151-2 2.351 0 1.012-2.322-1.444-2.503-1.329-.098-2.406.554-2.76 1.671-.77 2.425-3.151 2.34-3.938-.14-.579-1.825-1.555-1.971-13.019-1.957-10.773.014-12.316.219-11.8 1.564m45.892.013c-.295.768.321 2.255 1.368 3.302 1.873 1.873 1.923 1.854 2.977-1.172.59-1.692 1.073-3.178 1.073-3.302 0-.994-5.002.088-5.418 1.172m18.811-.066c.334.87.607 1.77.607 2 0 1.364 1.854.083 2.29-1.582.395-1.511.03-2-1.491-2-1.425 0-1.836.462-1.406 1.582M294 165c0 .55.45 1 1 1s1-.45 1-1-.45-1-1-1-1 .45-1 1m-19 4.5c0 .825.436 1.5.969 1.5.532 0 .709-.675.393-1.5-.317-.825-.753-1.5-.969-1.5-.216 0-.393.675-.393 1.5" fill="#888" fill-rule="evenodd"/><path fill-opacity=".637" d="M185 120.594c0 .876-.849 1.815-1.887 2.087-1.039.271-2.706 2.309-3.707 4.527-1.686 3.739-1.888 3.879-2.765 1.913-1.194-2.675-3.311-2.737-4.141-.121-.493 1.553-1.513 2-4.567 2-2.163 0-3.933-.45-3.933-1 0-2.296-1.797-.766-2.35 2-.531 2.657-1.006 3-4.15 3s-3.619-.343-4.15-3c-.33-1.65-.938-3-1.35-3-.412 0-1.02 1.35-1.35 3-.508 2.54-1.064 3-3.625 3-1.664 0-3.025.45-3.025 1s-.45 1-1 1-1-.9-1-2-.45-2-1-2-1 .606-1 1.346c0 2.035-3.013 7.654-4.105 7.654-.527 0-1.247-.753-1.6-1.674-1.587-4.134-4.099-5.326-11.228-5.326-6.054 0-7.013-.253-7.567-2-.819-2.58-3.182-2.577-4.001.004-.568 1.789-1.408 1.98-7.856 1.788-6.281-.187-7.507.072-9.431 1.996-2.85 2.85-3.992 2.789-5.394-.288-1.348-2.958-3.8-3.285-4.502-.599-.693 2.648-5.316 3.484-5.316.96 0-1.023-.45-1.861-1-1.861s-1 .623-1 1.383c0 .761-1.125 1.599-2.5 1.862-1.942.371-2.5.063-2.5-1.384 0-1.023-.45-1.861-1-1.861s-1 1.35-1 3c0 2-.5 3-1.5 3-.825 0-1.507.563-1.515 1.25-.011.865-.296.807-.927-.19-.738-1.166-1.592-1.232-4.485-.344-2.779.853-3.573.819-3.573-.156 0-.689-.7-2.655-1.555-4.369-1.486-2.979-1.783-3.1-6.75-2.743-2.857.205-5.758-.092-6.445-.66-.86-.711-1.64-.711-2.5 0-.688.568-2.982.983-5.098.922-2.666-.078-4.14.41-4.799 1.589-.524.936-1.553 1.701-2.286 1.701-.734 0-1.569.9-1.857 2-.377 1.444-1.364 2-3.549 2-2.148 0-3.21-.58-3.661-2-.394-1.242-1.513-2-2.951-2-1.475 0-2.506.726-2.839 2-.313 1.197-1.364 2-2.616 2-1.152 0-2.094.381-2.094.847 0 .466-.925 1.914-2.056 3.218-2.236 2.577-3.299 1.921-4.561-2.815-1.034-3.88-2.384-2.455-2.368 2.5.01 3.106.319 4.272.891 3.368.688-1.086 1.02-.925 1.552.75.645 2.031 4.542 3.119 4.542 1.268 0-1.574 5.86-7.609 6.636-6.834.418.419 1.291-.231 1.94-1.444 1.125-2.102 1.208-2.115 1.792-.273.517 1.627 1.363 1.873 5.373 1.562 2.67-.207 5.11-.979 5.559-1.758.44-.764 1.4-1.389 2.133-1.389.734 0 1.569-.9 1.857-2 .726-2.777 2.546-2.501 3.299.5.682 2.714 2.411 3.432 2.411 1 0-.825.45-1.5 1-1.5s1 .675 1 1.5c0 2.579 3.724 1.734 4.411-1 .761-3.034 3.567-3.301 4.323-.41.408 1.561 1.141 1.976 2.9 1.64 2.671-.511 3.803.567 4.747 4.52.443 1.853 1.303 2.75 2.638 2.75 1.09 0 1.981.45 1.981 1s.9 1 2 1 2-.45 2-1 .675-1 1.5-1 1.5.45 1.5 1c0 2.296 1.797.766 2.35-2 .352-1.76 1.231-3 2.125-3 .839 0 1.525-.45 1.525-1s.45-1 1-1 1 .9 1 2 .45 2 1 2 1-.45 1-1 .627-1 1.393-1 1.629-.615 1.918-1.368c.885-2.305 5.66-2.651 6.999-.507.644 1.031 1.715 1.875 2.379 1.875 1.67 0 6.294-4.424 6.39-6.115.043-.762.531-.147 1.083 1.365 1.25 3.423 2.606 3.522 3.427.25l.628-2.5h13.485c12.644 0 13.518.125 14.008 2 .288 1.1.868 2 1.29 2 .422 0 1.002.9 1.29 2 .385 1.472 1.364 2 3.71 2s3.325-.528 3.71-2c.329-1.258 1.364-2 2.79-2 1.461 0 2.462-.746 2.816-2.099.517-1.979 1.093-2.079 10.117-1.75 5.263.192 9.568.054 9.568-.307-.001-.361.856-.433 1.903-.159 1.313.344 2.109-.151 2.567-1.594.552-1.737 1.472-2.091 5.445-2.091 4.61 0 4.845-.143 6.584-4 .992-2.2 2.41-4 3.152-4 .741 0 1.348-.45 1.348-1s.45-1 1-1 1 .9 1 2 .45 2 1 2 1-.45 1-1 1.361-1 3.025-1c2.561 0 3.117.46 3.625 3 .553 2.766 2.35 4.296 2.35 2 0-.55 1.586-1 3.525-1 3.117 0 3.595.348 4.125 3 .33 1.65.938 3 1.35 3 .412 0 1.02-1.35 1.35-3 .9-4.499 3.42-3.799 4.706 1.309l1.085 4.308 5.991-.433c5.45-.394 6.04-.242 6.546 1.691.305 1.169 1.192 2.125 1.97 2.125s1.674.675 1.99 1.5c.317.825 1.38 1.5 2.362 1.5.982 0 2.045-.675 2.362-1.5.426-1.111 2.203-1.503 6.857-1.511l6.281-.012 1.911-3.988c2.085-4.352 5.033-5.315 6.089-1.989.401 1.264 1.513 2 3.02 2 1.744 0 2.833.942 4.047 3.5 1.478 3.115 2.089 3.5 5.547 3.5 2.137 0 3.886-.45 3.886-1 0-2.084 1.807-.88 3 2 1.194 2.882 1.489 3 7.514 3 4.766 0 6.416-.375 6.872-1.563.778-2.028 2.614-.888 2.614 1.622 0 3.034 1.683 2.276 2.35-1.059.433-2.163 1.172-3 2.65-3s2.217.837 2.65 3c.33 1.65.937 3 1.35 3 .413 0 1.02-1.35 1.35-3 .471-2.357 1.127-3 3.058-3 1.579 0 2.684.715 3.092 2 .492 1.55 1.513 2 4.539 2 3.556 0 3.983.289 4.789 3.25.86 3.161.905 3.096 1.627-2.368.408-3.09.525-6.465.26-7.5-.29-1.129-.529-.581-.599 1.368-.11 3.069-.324 3.25-3.866 3.244-3.138-.006-4.036-.509-5.5-3.081-.962-1.691-1.75-3.714-1.75-4.494 0-2.313-1.833-1.614-2.18.831-.3 2.11-.861 2.268-9.015 2.538-7.62.253-8.771.531-9.317 2.25-.491 1.546-1.529 1.962-4.895 1.962-3.995 0-4.395-.258-6.182-3.989-2.056-4.291-4.847-5.276-5.701-2.011-.867 3.316-4.391 2.474-6.277-1.5-1.194-2.516-2.313-3.5-3.98-3.5-1.44 0-2.559-.758-2.953-2-.486-1.531-1.513-2-4.382-2-3.309 0-3.946.416-5.442 3.553-1.737 3.644-3.676 3.848-3.676.388 0-2.697-1.79-2.443-2.18.309-.266 1.87-1.037 2.302-4.57 2.557-2.894.21-4.25.768-4.25 1.75 0 .794-.45 1.443-1 1.443s-1-.675-1-1.5-.663-1.5-1.474-1.5c-1.571 0-4.526-4.865-4.526-7.45 0-1.856-1.626-2.064-2.338-.3-.403 1-.52 1-.583 0-.153-2.425-1.837-1.212-2.429 1.75-.33 1.65-1.072 3-1.65 3-.578 0-1.32-1.35-1.65-3-.33-1.65-1.219-3-1.975-3s-1.375-.45-1.375-1c0-.563-2.811-1-6.433-1-5.554 0-6.519-.273-7.067-2-.496-1.564-1.513-2-4.661-2-3.185 0-4.135-.418-4.549-2-.676-2.584-7.29-2.953-7.29-.406M.286 145.5c.008 2.75.202 3.756.432 2.236.229-1.52.223-3.77-.014-5-.237-1.23-.425.014-.418 2.764" fill="#888" fill-rule="evenodd"/></svg>